<svg id="Layer_1" data-name="Layer 1" xmlns="http://www.w3.org/2000/svg" width="750" height="199.16" viewBox="0 0 750 199.16"><defs><style>.cls-1{fill:#0276be;}.cls-2{fill:#f28b00;}</style></defs><title>bluesnap-logo</title><path class="cls-1" d="M112.16,275.42h4.19c4.16,1,7.61,4.79,7.5,9.16q0,55.25,0,110.46c0,4.34,1.36,8.87,4.71,11.79,4.63,4.22,11.15,5.23,17.2,5.36a9.46,9.46,0,0,1,0,18.89c-11.53.26-23.73-3.32-31.79-11.9-6.15-6.39-9.13-15.34-9.08-24.13q0-54.81,0-109.63A10,10,0,0,1,112.16,275.42Z" transform="translate(0 -275.42)"/><path class="cls-2" d="M385.92,275.42h9.49c8,.79,16,2.91,22.69,7.45a35.37,35.37,0,0,1,14.13,17.53c1.23,3.39,2.56,7.15,1.32,10.73-2.21,6-11.07,7.67-15.58,3.34-2.86-2.52-2.81-6.7-4.79-9.77-3.4-5.91-10.15-8.88-16.65-9.78-7.1-.89-14.78-.57-21.12,3.07-9.79,5.62-11.16,20.85-3.41,28.72,4.81,5,11.16,8.05,17.3,11.08,7.43,3.69,15.35,6.36,22.62,10.39,8.62,4.81,16.74,11.47,20.85,20.67,5.26,11.72,6,25.83.47,37.61a39.79,39.79,0,0,1-18.1,18.83c-13.29,6.83-29.38,7.54-43.5,2.91-11.74-3.86-21.8-13.1-25.61-25-1.34-4.21-2.84-9.34,0-13.27,3.18-5.07,11.36-5.65,15.19-1.05,2.89,3,2.26,7.6,4.21,11.09,2.66,5.53,8.28,9,14.07,10.46,9.36,2.41,19.83,1.72,28.24-3.29a20.51,20.51,0,0,0,10-13.61c1.33-7.2-.37-15.16-5.26-20.75-5.06-5.8-12.18-9.21-19.1-12.27-10.92-4.72-22.11-9.38-31.4-17-6.58-5.28-11.65-12.66-13.32-21-2.21-11.34-.14-24,7.51-32.95C363.52,280.87,374.74,276.26,385.92,275.42Z" transform="translate(0 -275.42)"/><path class="cls-1" d="M9.42,276.43c11.69-.11,23.4,0,35.1,0a36.74,36.74,0,0,1,21.11,6.18c11,7.58,16.72,21.17,16.45,34.28a44.78,44.78,0,0,1-9.46,28.19,38.35,38.35,0,0,1,10.82,11.69c6.41,10.74,7.9,23.77,6.35,36-1.45,10.91-6.22,21.83-14.92,28.86A38.28,38.28,0,0,1,50.66,430c-13.82,0-27.66,0-41.49,0-4.39.11-8.2-3.38-9.17-7.54V284.07A9.74,9.74,0,0,1,9.42,276.43Zm9.38,18.93c-.09,14.18.12,28.38-.1,42.56,6.8.43,13.62.07,20.42.19,4.59-.15,9.44.66,13.72-1.42,5.43-2.37,8.54-8,9.67-13.6,1.43-7.47.48-15.91-4.45-22a16.57,16.57,0,0,0-12.8-5.72C36.44,295.29,27.62,295.4,18.8,295.36Zm0,61.74c-.12,17.89.11,35.78-.11,53.67,10.36.44,20.75.05,31.13.2a18.74,18.74,0,0,0,14.22-5.46c5.63-5.71,7.4-14.15,7.29-21.92s-2.16-16.36-8.22-21.74c-3.77-3.48-9-4.75-14-4.76Q34,357.08,18.81,357.1Z" transform="translate(0 -275.42)"/><path class="cls-1" d="M735,301.23c6-2,13.32,1.69,14.83,7.88-.13,3.76,1,8.14-1.68,11.29-4.18,6-14,6.48-18.63.69C723.91,314.92,726.79,303.45,735,301.23Zm.7,1.5c-5.25,1.43-8.44,7.44-7.15,12.64a10.19,10.19,0,0,0,10.73,8.17c5.61-.24,10.08-5.77,9.48-11.29C748.72,305.86,741.88,300.75,735.74,302.73Z" transform="translate(0 -275.42)"/><path class="cls-1" d="M734.61,306.09c2.64.21,6.42-.84,8,2a4.45,4.45,0,0,1-1.88,5.93c1,1.91,1.94,3.83,2.89,5.76l-1.93-.06c-.93-1.79-1.82-3.59-2.62-5.42-1,0-2-.09-2.92-.15a51.17,51.17,0,0,1-.16,5.68l-1.21,0C734.38,315.26,734.71,310.66,734.61,306.09Zm1.53,1.5c0,1.66,0,3.33,0,5,1.83,0,5,.66,5.19-2C741.93,307.59,738.19,307.43,736.14,307.59Z" transform="translate(0 -275.42)"/><path class="cls-1" d="M165,320.9a9.58,9.58,0,0,1,11.72,4.67c1.38,2.5.91,5.42,1,8.14q0,31,0,62.07a14.79,14.79,0,0,0,6.7,12.64c5.54,3.48,12.39,4.13,18.77,3.51,5.38-.61,11.1-2.49,14.51-7a15.9,15.9,0,0,0,2.95-9.89q0-32.61,0-65.22a9.49,9.49,0,0,1,19,0q0,33.39,0,66.76a34,34,0,0,1-13.18,26.31c-8,5.88-18,8.38-27.84,8.21-10.55,0-21.52-3.24-29.39-10.51-7-6.45-10.61-16.09-10.49-25.54,0-21.72,0-43.46,0-65.18A9.45,9.45,0,0,1,165,320.9Z" transform="translate(0 -275.42)"/><path class="cls-1" d="M285.69,321.22c12.16-2.25,25.43-.11,35.57,7.2a34.22,34.22,0,0,1,13.63,22c.93,5.09.49,10.29.6,15.44,0,2.61.29,5.37-.85,7.81a9.35,9.35,0,0,1-7.27,5.42c-17.79,3.39-35.61,6.68-53.37,10.22-.95,1.59-.25,3.86-.45,5.72-.25,5.42,2.35,11,7.2,13.71,6.89,3.88,15.38,4.18,22.92,2.29,5.95-1.44,11.61-5.93,12.52-12.27a9.4,9.4,0,0,1,8.95-8.33c5.46-.56,10.52,4.58,10,10a32.49,32.49,0,0,1-13.78,23.06c-8.21,5.81-18.53,8-28.47,7.56-10.4-.31-21.09-3.81-28.61-11.21a33.69,33.69,0,0,1-9.67-23.29c0-13.3,0-26.6,0-39.91a35.21,35.21,0,0,1,9.14-23.75C269.45,326.68,277.45,322.83,285.69,321.22Zm-4.8,21.88a15.74,15.74,0,0,0-7.3,12.85c-.08,4.65,0,9.3,0,14,14.34-2.52,28.62-5.33,42.94-8,0-4.2.29-8.64-1.71-12.48-2.3-5.06-7.52-8-12.7-9.28C295,338.54,287.13,339.17,280.89,343.1Z" transform="translate(0 -275.42)"/><path class="cls-2" d="M451.67,329c.07-5.29,5.66-9.33,10.74-8.4,3.22.26,5.79,2.49,7.47,5.11,10.23-5.62,22.62-6.67,33.88-3.95,9.91,2.43,19.28,8.45,24.21,17.57a34.66,34.66,0,0,1,4.4,16.6q0,33,0,65.93c.19,5-4.47,9.4-9.4,9.21a9.26,9.26,0,0,1-8.61-5.36c-1.28-2.64-1-5.65-1-8.49q0-30.67,0-61.35a15.61,15.61,0,0,0-7.9-13.18,28.46,28.46,0,0,0-19.36-2.84c-5.18,1-10.28,3.62-13.19,8.15-2.07,3.25-2.48,7.2-2.49,11q0,31.46,0,62.89c.22,5.05-4.62,9.54-9.62,9.22-4.85.08-9.41-4.32-9.18-9.24C451.68,390.93,451.62,360,451.67,329Z" transform="translate(0 -275.42)"/><path class="cls-2" d="M572.79,321.54c10.72-2.46,22.6-1.21,32,4.69A31,31,0,0,1,619,352c.06,15.11,0,30.22,0,45.33.3,4.93,1.88,10.5,6.33,13.24,3.57,2.41,8.49.55,11.84,3.49,4.61,3.34,4.73,10.77.52,14.49-2.54,2.58-6.39,2.82-9.77,2.38a30.67,30.67,0,0,1-18.91-9.46c-7.29,6.64-17.28,9.8-27,9.6-10,.16-20.33-2.89-27.66-9.87a31.11,31.11,0,0,1-9.55-23.11c-.18-8.63,2.68-17.57,8.88-23.74s15-9.37,23.69-10.37c7.61-.81,15.26-1.17,22.89-1.94-.36-5.41,1-11.38-2-16.26-3-4.64-8.68-6.44-13.91-6.65s-11.11,1.05-14.89,5c-2.54,2.47-2.74,6.65-5.92,8.56a9.58,9.58,0,0,1-13.66-3c-2.2-3.52-1.28-7.94.66-11.35C554.81,329.7,563.44,323.65,572.79,321.54Zm9.93,60.91c-5.5.45-11.41,1.53-15.63,5.37-3.77,3.54-4,9.27-3.08,14,1.17,4.88,5.62,8.19,10.32,9.33,6.09,1.52,12.89,1.42,18.62-1.38a13.24,13.24,0,0,0,7.06-11c.49-5.89,0-11.81.26-17.7C594.41,381.32,588.58,382.08,582.72,382.45Z" transform="translate(0 -275.42)"/><path class="cls-2" d="M664.61,325.75c9.95-5.35,21.76-6.43,32.77-4.51,9.46,1.79,18.85,6.45,24.38,14.6a34,34,0,0,1,6.15,20.05c0,13.55,0,27.09,0,40.64a34.9,34.9,0,0,1-18.37,29.31,48.27,48.27,0,0,1-43.31.4c-.11,12.61,0,25.23-.06,37.84a9.91,9.91,0,0,1-4.24,8.57c-2.33,1.34-5.23,2.75-7.83,1.35-3.65-1.12-6.84-4.44-6.87-8.39q-.08-67.11,0-134.2a9.08,9.08,0,0,1,5.11-8.71C656.48,320.4,661.77,322.13,664.61,325.75Zm15.69,14.34a20.85,20.85,0,0,0-9.35,4.37,14.16,14.16,0,0,0-4.78,10.73c0,13.54,0,27.08,0,40.61a15.64,15.64,0,0,0,7.9,13.05c5.71,3.29,12.62,3.88,19,2.8,5.35-1,10.83-3.61,13.65-8.49a17,17,0,0,0,2.18-9.69c-.06-13,0-26.05,0-39.08A14.51,14.51,0,0,0,700.33,342,32.39,32.39,0,0,0,680.3,340.09Z" transform="translate(0 -275.42)"/></svg>