<?xml version="1.0" standalone="no"?>
<!DOCTYPE svg PUBLIC "-//W3C//DTD SVG 20010904//EN"
 "http://www.w3.org/TR/2001/REC-SVG-20010904/DTD/svg10.dtd">
<svg version="1.0" xmlns="http://www.w3.org/2000/svg"
 width="1890.000000pt" height="1417.000000pt" viewBox="0 0 1890.000000 1417.000000"
 preserveAspectRatio="xMidYMid meet">

<g transform="translate(0.000000,1417.000000) scale(0.100000,-0.100000)"
fill="#000000" stroke="none">
<path d="M6247 7370 c-68 -53 -25 -170 63 -170 38 0 78 28 90 64 22 68 -19
126 -90 126 -22 0 -48 -8 -63 -20z"/>
<path d="M11027 7383 c-4 -3 -7 -73 -7 -155 0 -81 -2 -148 -5 -148 -3 0 -18 9
-33 20 -42 30 -145 53 -205 45 -106 -14 -195 -70 -239 -152 -69 -126 -55 -303
31 -412 88 -111 294 -143 413 -65 46 30 48 30 48 -1 0 -24 2 -25 75 -25 l75 0
0 450 0 450 -73 0 c-41 0 -77 -3 -80 -7z m-107 -416 c112 -59 121 -234 17
-311 -20 -14 -47 -21 -95 -24 -57 -3 -72 0 -101 20 -55 37 -74 71 -79 137 -2
32 1 74 7 93 31 95 154 137 251 85z"/>
<path d="M6834 7140 c-18 -4 -48 -17 -67 -29 l-36 -22 -3 23 c-3 21 -9 23 -66
26 -38 2 -69 -2 -78 -9 -19 -16 -21 -618 -2 -637 16 -16 130 -16 146 0 8 8 12
67 12 200 0 212 7 244 62 278 62 37 135 19 171 -43 8 -15 14 -91 17 -232 l5
-210 68 -3 c42 -2 74 2 83 9 11 9 14 50 14 203 0 166 2 196 18 225 20 38 73
71 112 71 35 0 88 -35 103 -68 7 -16 14 -106 17 -232 l5 -205 75 0 75 0 0 230
c0 196 -3 237 -18 276 -38 99 -124 152 -247 153 -83 1 -146 -23 -190 -69 l-23
-25 -42 39 c-56 51 -133 70 -211 51z"/>
<path d="M7994 7140 c-18 -4 -48 -17 -67 -29 l-36 -22 -3 23 c-3 21 -9 23 -66
26 -38 2 -69 -2 -78 -9 -19 -16 -21 -618 -2 -637 16 -16 130 -16 146 0 8 8 12
67 12 200 0 212 7 244 62 278 62 37 135 19 171 -43 8 -15 14 -91 17 -232 l5
-210 68 -3 c42 -2 74 2 83 9 11 9 14 50 14 203 0 166 2 196 18 225 20 38 73
71 112 71 35 0 88 -35 103 -68 7 -16 14 -106 17 -232 l5 -205 75 0 75 0 0 230
c0 196 -3 237 -18 276 -38 99 -124 152 -247 153 -83 1 -146 -23 -190 -69 l-23
-25 -42 39 c-56 51 -133 70 -211 51z"/>
<path d="M9121 7140 c-180 -38 -290 -215 -251 -406 26 -124 90 -204 196 -244
48 -18 74 -21 141 -18 71 4 89 9 133 36 28 18 53 32 56 32 2 0 4 -14 4 -30 l0
-31 73 3 72 3 3 323 2 322 -75 0 c-70 0 -75 -1 -81 -24 l-6 -24 -56 29 c-64
32 -142 43 -211 29z m198 -179 c68 -49 90 -158 49 -241 -40 -78 -121 -114
-208 -91 -82 22 -130 88 -130 180 0 122 66 184 190 178 50 -2 73 -8 99 -26z"/>
<path d="M10035 7144 c-43 -11 -81 -28 -112 -51 l-32 -23 -3 32 -3 33 -63 3
c-38 2 -69 -2 -78 -9 -19 -16 -21 -618 -2 -637 16 -16 130 -16 146 0 8 8 12
67 12 197 0 174 2 189 23 225 52 92 196 103 252 20 18 -26 21 -52 25 -239 l5
-210 75 0 75 0 3 209 c3 249 -5 292 -71 363 -23 25 -60 54 -83 64 -42 19 -134
31 -169 23z"/>
<path d="M6235 7128 c-3 -7 -4 -155 -3 -328 l3 -315 75 0 75 0 0 325 0 325
-73 3 c-52 2 -74 -1 -77 -10z"/>
<path d="M11302 7117 c-8 -10 20 -88 109 -307 65 -161 119 -299 119 -305 0 -6
-27 -74 -60 -150 -72 -165 -71 -167 37 -163 l74 3 196 452 c107 249 193 460
189 468 -4 12 -23 15 -84 15 l-79 0 -89 -215 c-48 -118 -89 -213 -90 -212 -1
1 -27 74 -59 162 -32 88 -66 184 -77 213 l-19 52 -78 0 c-52 0 -82 -4 -89 -13z"/>
</g>
</svg>
