<?xml version="1.0" standalone="no"?>
<!DOCTYPE svg PUBLIC "-//W3C//DTD SVG 20010904//EN"
 "http://www.w3.org/TR/2001/REC-SVG-20010904/DTD/svg10.dtd">
<svg version="1.0" xmlns="http://www.w3.org/2000/svg"
 width="555.000000pt" height="449.000000pt" viewBox="0 0 555.000000 449.000000"
 preserveAspectRatio="xMidYMid meet">

<g transform="translate(0.000000,449.000000) scale(0.100000,-0.100000)"
fill="#000000" stroke="none">
<path d="M2595 4136 c-353 -68 -628 -214 -860 -458 -203 -214 -332 -466 -381
-748 -24 -138 -24 -387 0 -520 122 -684 672 -1179 1364 -1229 686 -49 1296
361 1516 1019 60 179 71 252 70 465 0 155 -4 208 -22 287 -130 595 -573 1041
-1162 1173 -101 23 -427 30 -525 11z m415 -137 c285 -41 565 -183 776 -393
257 -257 384 -570 384 -944 0 -245 -57 -458 -178 -667 -192 -333 -502 -561
-889 -657 -73 -17 -119 -21 -268 -22 -202 -1 -263 8 -425 61 -364 121 -655
377 -816 717 -52 112 -79 192 -105 321 -30 144 -23 405 14 550 106 413 368
741 732 916 251 120 496 158 775 118z"/>
<path d="M2361 3754 c-175 -47 -313 -207 -328 -381 -10 -117 19 -225 83 -310
l24 -32 0 -710 c0 -698 0 -711 20 -731 26 -26 72 -26 96 1 18 20 19 49 24 654
l5 633 341 -337 c354 -351 374 -375 393 -474 23 -127 -52 -271 -174 -328 -112
-54 -227 -36 -350 52 -40 29 -47 31 -74 20 -35 -15 -57 -60 -43 -88 30 -56
156 -125 261 -143 248 -45 501 151 518 399 10 136 -22 230 -114 338 l-56 65
239 239 c131 132 242 239 246 239 5 0 8 -288 8 -639 l0 -640 22 -15 c12 -9 32
-16 43 -16 11 0 31 7 43 16 l22 15 0 743 c0 732 0 743 -20 761 -11 10 -34 18
-51 18 -27 0 -69 -38 -342 -311 l-312 -312 -332 332 c-370 371 -384 389 -384
508 -1 95 25 155 95 226 51 50 71 63 122 77 33 9 73 17 89 17 55 0 142 -32
194 -71 62 -47 100 -51 130 -13 29 37 26 57 -15 97 -102 99 -276 141 -423 101z"/>
<path d="M1090 870 l0 -130 65 0 c58 0 65 2 65 20 0 17 -7 20 -45 20 l-45 0 0
110 c0 103 -1 110 -20 110 -19 0 -20 -7 -20 -130z"/>
<path d="M1463 981 c-75 -47 -84 -149 -19 -208 30 -28 43 -33 83 -33 85 0 132
48 133 133 0 40 -5 53 -33 83 -28 31 -41 37 -83 41 -37 3 -57 -1 -81 -16z
m118 -31 c10 -6 26 -24 35 -41 40 -78 -46 -165 -125 -125 -37 20 -51 44 -51
89 0 68 78 110 141 77z"/>
<path d="M1899 977 c-22 -15 -39 -38 -49 -65 -13 -37 -13 -47 0 -84 22 -62 69
-91 137 -86 72 6 93 27 93 90 l0 49 -57 -3 c-46 -2 -59 -7 -61 -20 -3 -15 4
-18 37 -18 36 0 41 -3 41 -23 0 -16 -9 -28 -25 -35 -35 -16 -52 -15 -85 5 -54
32 -65 94 -24 142 21 26 33 31 69 31 24 0 47 -5 50 -10 5 -8 11 -7 21 1 21 17
17 26 -17 38 -49 17 -93 13 -130 -12z"/>
<path d="M2323 986 c-85 -38 -93 -170 -14 -223 73 -49 172 -17 201 65 28 82
-23 160 -111 168 -26 3 -57 -2 -76 -10z m137 -63 c47 -61 -2 -153 -81 -153
-32 0 -89 62 -89 97 0 60 67 110 122 91 15 -6 37 -21 48 -35z"/>
<path d="M2700 871 l0 -131 53 0 c65 0 114 25 139 71 23 43 23 63 -2 113 -25
53 -50 68 -127 74 l-63 5 0 -132z m135 67 c15 -14 28 -38 31 -59 5 -28 1 -41
-21 -67 -23 -27 -34 -32 -71 -32 l-44 0 0 90 0 90 39 0 c27 0 48 -7 66 -22z"/>
<path d="M3080 870 l0 -130 71 0 c62 0 70 2 67 18 -2 13 -15 18 -51 20 -46 3
-47 4 -47 38 l0 34 50 0 c43 0 50 3 50 20 0 17 -7 20 -50 20 l-50 0 0 35 0 35
50 0 c43 0 50 3 50 20 0 18 -7 20 -70 20 l-70 0 0 -130z"/>
<path d="M3422 984 c-19 -13 -22 -24 -20 -57 3 -37 8 -43 48 -67 48 -28 61
-58 35 -80 -13 -11 -21 -11 -36 -2 -26 16 -49 15 -49 -3 0 -19 31 -35 69 -35
30 0 71 38 71 66 0 31 -25 63 -61 79 -40 19 -52 35 -42 61 4 12 15 15 37 11
47 -7 61 1 40 24 -21 23 -62 25 -92 3z"/>
<path d="M3710 870 c0 -123 1 -130 20 -130 19 0 20 7 20 130 0 123 -1 130 -20
130 -19 0 -20 -7 -20 -130z"/>
<path d="M3993 980 c-63 -38 -81 -120 -40 -181 31 -47 62 -61 124 -56 71 5 93
26 93 89 l0 49 -57 -3 c-46 -2 -59 -7 -61 -20 -3 -15 4 -18 37 -18 36 0 41 -3
41 -24 0 -17 -9 -27 -30 -36 -94 -39 -175 82 -104 154 28 27 84 35 114 16 9
-5 19 -5 27 2 20 16 16 25 -18 37 -47 16 -90 13 -126 -9z"/>
<path d="M4350 871 c0 -124 1 -131 20 -131 17 0 20 8 22 91 l3 91 55 -88 c39
-64 61 -90 78 -92 22 -3 22 -3 22 127 0 124 -1 131 -20 131 -19 0 -20 -7 -21
-92 0 -106 4 -107 -75 21 -27 43 -49 67 -63 69 -21 3 -21 1 -21 -127z"/>
</g>
</svg>
